<svg version="1" xmlns="http://www.w3.org/2000/svg" width="533.333" height="533.333" viewBox="0 0 400.000000 400.000000"><path d="M184.9.4c-.2.2-3.3.6-6.9.9-10.3.9-31.5 5.6-42.4 9.4C123.4 15 95.9 28.1 93 31c-.3.3-3.2 2.3-6.5 4.5-13.9 9.1-32.4 26.2-42.2 39.1-1.3 1.6-3.7 4.7-5.4 6.9-12 15.5-24.5 41-30.7 62.5-6.1 21-7.7 33.5-7.6 58 .1 25.9 3.6 45.7 12 67.2 2 5.1 4.1 10.6 4.8 12.3 3.2 8.4 18.5 34.4 20.8 35.3.4.2.8 1 .8 1.8s.4 1.4.8 1.4 1.5 1.2 2.4 2.7c2.8 4.8 17.3 20.1 26.7 28.3 6.6 5.8 21.9 17 26.1 19.2 1.4.7 2.7 1.6 3 2 2 2.6 38 17.9 47.8 20.4.9.2 4.4 1 7.7 1.9 3.3.8 8 1.8 10.5 2.1 2.5.3 4.7.8 5 .9 3 1.8 41.3 2.7 53.6 1.3 9.2-1 25.9-4.6 35.4-7.4 10.1-3.1 29.4-11 33.2-13.6 1.4-1 2.9-1.8 3.3-1.8 1.2 0 16.7-9.6 23.7-14.7 30.1-22 54.2-53.5 68.1-88.9 3.5-8.8 8-23.8 9.1-29.9.3-1.7 1-5.3 1.5-8.2 3.9-20.4 3.4-56.4-1-74.3-.4-1.9-1.1-5-1.4-6.9-1.3-7.4-9-28.3-15-40.6-9.6-19.6-18.4-32.6-32-47.3C338 55 336.7 53.7 325.1 44c-6.2-5.1-20.7-15-22.1-15-.6 0-1-.4-1-.8 0-2.1-36.7-18-47.8-20.8-.9-.2-4.4-1-7.7-1.9-6-1.5-7.3-1.8-15.3-3-2.3-.4-5.4-.9-7-1.1-3.4-.6-38.8-1.5-39.3-1z"/></svg>